<svg xmlns="http://www.w3.org/2000/svg" viewBox="0 0 542.51 472.5"><g id="Calque_2" data-name="Calque 2"><g id="Calque_1-2" data-name="Calque 1"><path d="M533.75,447.07H327.61v-17.5H525V380c0-69.69-53.37-126.39-119-126.39-38.22,0-74.38,19.7-96.71,52.71l-14.5-9.81c25.6-37.82,67.17-60.4,111.21-60.4,75.25,0,136.47,64.55,136.47,143.89v58.32a8.75,8.75,0,0,1-8.75,8.75Z"/><path d="M406,221.61c-43.59,0-79.05-36.15-79.05-80.6S362.45,60.42,406,60.42,485.1,96.58,485.1,141s-35.47,80.6-79.06,80.6Zm0-143.68c-33.94,0-61.55,28.3-61.55,63.1S372.1,204.12,406,204.12,467.6,175.82,467.6,141,440,77.93,406,77.93Z"/><path d="M327.61,472.5H8.75A8.75,8.75,0,0,1,0,463.75V391.43C0,295,75.45,216.55,168.18,216.55S336.36,295.2,336.36,391.87v71.88a8.75,8.75,0,0,1-8.75,8.75ZM17.5,455H318.86V391.86c0-87-67.59-157.82-150.68-157.82S17.5,304.65,17.5,391.42Z"/><path d="M168.18,194.6C115,194.6,71.66,151,71.66,97.3S115,0,168.18,0,264.7,43.65,264.7,97.3,221.4,194.6,168.18,194.6Zm0-177.1c-43.57,0-79,35.8-79,79.8s35.45,79.8,79,79.8,79-35.8,79-79.8S211.75,17.5,168.18,17.5Z"/></g></g></svg>