<svg xmlns="http://www.w3.org/2000/svg" viewBox="0 0 332.46 457.3"><g id="Calque_2" data-name="Calque 2"><g id="Calque_1-2" data-name="Calque 1"><path d="M166.23,457.3a8.74,8.74,0,0,1-6.82-3.27C152.9,445.93,0,254.69,0,165.86,0,74.4,74.57,0,166.23,0S332.46,74.41,332.46,165.86c0,88.83-152.9,280.07-159.41,288.17a8.74,8.74,0,0,1-6.82,3.27Zm0-439.8c-82,0-148.73,66.56-148.73,148.36,0,72.62,118.71,229.92,148.73,268.53C196.25,395.78,315,238.47,315,165.86,315,84.05,248.24,17.5,166.23,17.5Z"/><path d="M166.23,235.58a69.72,69.72,0,1,1,69.86-69.72A69.87,69.87,0,0,1,166.23,235.58Zm0-121.94a52.22,52.22,0,1,0,52.36,52.22A52.35,52.35,0,0,0,166.23,113.64Z"/></g></g></svg>